<?xml version="1.0" encoding="UTF-8"?><svg xmlns="http://www.w3.org/2000/svg" viewBox="0 0 175.2 32.59"><defs><style>.d{fill-rule:evenodd;}.d,.e{fill:#231f20;}</style></defs><g id="a"/><g id="b"><g id="c"><g><path class="d" d="M33.16,16.3C33.41,37.46-.25,37.45,0,16.3c-.26-21.17,33.42-21.16,33.16,0"/><path class="e" d="M33.16,16.3C33.41,37.46-.25,37.45,0,16.3c-.26-21.17,33.42-21.16,33.16,0"/><polygon class="d" points="55.39 32.58 38.81 32.58 38.81 0 71.96 0 71.96 32.58 55.39 32.58"/><polygon class="e" points="55.39 32.58 38.81 32.58 38.81 0 71.96 0 71.96 32.58 55.39 32.58"/><polygon class="d" points="94.21 32.58 77.63 0 110.79 0 94.21 32.58"/><polygon class="e" points="94.21 32.58 77.63 0 110.79 0 94.21 32.58"/><polygon class="d" points="123.58 0 140.16 32.59 107 32.59 123.58 0"/><polygon class="e" points="123.58 0 140.16 32.59 107 32.59 123.58 0"/><polygon class="d" points="158.62 0 142.04 12.46 148.53 32.59 168.7 32.59 175.2 12.46 158.62 0"/></g></g></g></svg>