<?xml version="1.0" encoding="UTF-8"?><svg xmlns="http://www.w3.org/2000/svg" viewBox="0 0 140.48 14.44"><defs><style>.d{letter-spacing:0em;}.e{letter-spacing:0em;}.f{fill-rule:evenodd;}.f,.g,.h,.i{fill:#231f20;}.j{letter-spacing:0em;}.k{letter-spacing:0em;}.l{letter-spacing:0em;}.g{stroke:#000;stroke-linecap:round;stroke-linejoin:round;stroke-width:.09px;}.i{font-family:BDOGrotesk-Medium, BDO Grotesk;font-size:12px;}.m{letter-spacing:0em;}</style></defs><g id="a"/><g id="b"><g id="c"><g><text class="i" transform="translate(53.28 11.33)"><tspan x="0" y="0">HI</tspan><tspan class="e" x="12.74" y="0">P</tspan><tspan class="m" x="21.12" y="0">E</tspan><tspan class="d" x="28.99" y="0">R</tspan><tspan class="l" x="37.8" y="0">S</tspan><tspan class="j" x="45.56" y="0">T</tspan><tspan x="52.9" y="0">I</tspan><tspan class="e" x="56.29" y="0">C</tspan><tspan class="k" x="65.1" y="0">IÓN</tspan></text><g><path class="f" d="M9.81,7.22C9.89,13.45-.03,13.45,.05,7.22-.03,.99,9.89,.99,9.81,7.22"/><path class="h" d="M9.81,7.22C9.89,13.45-.03,13.45,.05,7.22-.03,.99,9.89,.99,9.81,7.22"/><path class="g" d="M9.81,7.22C9.89,13.45-.03,13.45,.05,7.22-.03,.99,9.89,.99,9.81,7.22Z"/><polygon class="f" points="16.36 12.02 11.48 12.02 11.48 2.42 21.24 2.42 21.24 12.02 16.36 12.02"/><polygon class="h" points="16.36 12.02 11.48 12.02 11.48 2.42 21.24 2.42 21.24 12.02 16.36 12.02"/><polygon class="g" points="16.36 12.02 11.48 12.02 11.48 2.42 21.24 2.42 21.24 12.02 16.36 12.02"/><polygon class="f" points="27.79 12.02 22.91 2.42 32.68 2.42 27.79 12.02"/><polygon class="h" points="27.79 12.02 22.91 2.42 32.68 2.42 27.79 12.02"/><polygon class="g" points="27.79 12.02 22.91 2.42 32.68 2.42 27.79 12.02"/><polygon class="f" points="36.45 2.42 41.33 12.02 31.56 12.02 36.45 2.42"/><polygon class="h" points="36.45 2.42 41.33 12.02 31.56 12.02 36.45 2.42"/><polygon class="g" points="36.45 2.42 41.33 12.02 31.56 12.02 36.45 2.42"/><polygon class="f" points="46.77 2.42 41.88 6.09 43.79 12.02 49.74 12.02 51.65 6.09 46.77 2.42"/><polygon class="h" points="46.77 2.42 41.88 6.09 43.79 12.02 49.74 12.02 51.65 6.09 46.77 2.42"/><polygon class="g" points="46.77 2.42 41.88 6.09 43.79 12.02 49.74 12.02 51.65 6.09 46.77 2.42"/></g></g></g></g></svg>